<?xml version="1.0" encoding="UTF-8" standalone="no"?>
<!DOCTYPE svg PUBLIC "-//W3C//DTD SVG 1.1//EN" "http://www.w3.org/Graphics/SVG/1.1/DTD/svg11.dtd">
<svg width="100%" height="100%" viewBox="0 0 286 105" version="1.1" xmlns="http://www.w3.org/2000/svg" xmlns:xlink="http://www.w3.org/1999/xlink" xml:space="preserve" xmlns:serif="http://www.serif.com/" style="fill-rule:evenodd;clip-rule:evenodd;stroke-linejoin:round;stroke-miterlimit:2;">
    <g transform="matrix(1,0,0,1,-2753.85,-542.426)">
        <g transform="matrix(1,0,0,1,-0.875126,0)">
            <g transform="matrix(0.134761,0,0,0.134761,2435.55,528.518)">
                <g id="path1" transform="matrix(5.55556,0,0,-5.55556,2628.94,290.354)">
                    <path d="M0,0C0,2.866 -1.086,5.28 -3.257,7.244C-5.308,9.09 -8.607,10.012 -13.158,10.012L-14.697,10.012L-18.146,-10.07C-14.287,-11.193 -5.274,-9.969 -3.257,-7.303C-1.489,-4.966 0,-2.866 0,0M-46.889,-54.666L-32.828,25.96L-2.513,25.96C6.94,25.96 13.932,23.104 18.459,17.396C22.131,12.789 21.562,7.374 21.562,1.152C21.562,-5.975 14.79,-20.925 0.861,-21.877L19.606,-54.666L-6.23,-54.666L-20.527,-24.972L-26.09,-54.666L-46.889,-54.666" style="fill:rgb(182,164,107);fill-rule:nonzero;"/>
                </g>
                <g id="path3" transform="matrix(5.55556,0,0,-5.55556,3044.86,441.743)">
                    <path d="M0,0C0.417,3.499 -0.417,6.474 -2.499,8.925C-4.583,11.375 -8.438,12.573 -11.805,12.579C-15.559,12.586 -18.817,11.119 -21.582,8.18C-23.818,5.798 -25.118,3.075 -25.483,0.013C-25.848,-3.049 -25.198,-5.776 -23.53,-8.165C-21.504,-11.115 -18.599,-12.591 -14.806,-12.598C-11.399,-12.604 -7.246,-11.365 -4.601,-8.943C-1.957,-6.522 -0.422,-3.541 0,0M13.969,-27.88L-5.022,-27.845L-4.286,-21.671C-6.374,-24.027 -8.404,-25.741 -10.375,-26.816C-13.828,-28.687 -17.608,-29.621 -21.722,-29.613C-28.369,-29.602 -34.624,-27.839 -39.243,-23.079C-44.755,-17.398 -46.334,-9.263 -45.221,0.079C-44.088,9.581 -39.73,16.53 -32.713,22.187C-27.143,26.688 -21.089,28.933 -14.558,28.921C-10.755,28.914 -4.869,28.088 -1.72,26.444C0.083,25.481 1.591,24.529 3.365,22.328L4.803,27.781L23.007,27.748L13.969,-27.88Z" style="fill:rgb(182,164,107);fill-rule:nonzero;"/>
                </g>
                <g id="path5" transform="matrix(5.55556,0,0,-5.55556,3876.41,443.234)">
                    <path d="M0,0C0.42,3.524 -0.414,6.521 -2.492,8.989C-4.574,11.457 -8.188,12.662 -11.56,12.668C-15.312,12.675 -18.57,11.198 -21.334,8.239C-23.576,5.839 -24.88,3.096 -25.248,0.013C-25.616,-3.072 -24.965,-5.818 -23.297,-8.225C-21.279,-11.192 -18.37,-12.68 -14.581,-12.688C-11.172,-12.693 -7.256,-11.447 -4.609,-9.008C-1.96,-6.567 -0.426,-3.564 0,0M14.21,-27.851L-4.781,-27.815L-4.045,-21.642C-6.133,-23.997 -9.992,-26.072 -11.965,-27.147C-15.417,-29.019 -19.417,-29.222 -23.529,-29.214C-30.178,-29.201 -34.247,-27.688 -38.868,-22.929C-44.379,-17.249 -46.091,-9.233 -44.978,0.109C-43.845,9.61 -39.693,16.62 -32.676,22.277C-27.104,26.778 -21.054,29.023 -14.518,29.011C-10.715,29.004 -4.837,28.159 -1.692,26.474C0.113,25.511 1.823,24.499 3.6,22.297L10.765,60.913L29.756,60.878L14.21,-27.851Z" style="fill:rgb(182,164,107);fill-rule:nonzero;"/>
                </g>
                <g id="path7" transform="matrix(5.55556,0,0,-5.55556,3459.43,443.234)">
                    <path d="M0,0C0.42,3.524 -0.414,6.521 -2.492,8.989C-4.574,11.457 -8.187,12.662 -11.559,12.668C-15.311,12.675 -18.57,11.198 -21.334,8.239C-23.575,5.839 -24.88,3.096 -25.248,0.013C-25.615,-3.072 -24.965,-5.818 -23.297,-8.225C-21.278,-11.192 -18.37,-12.68 -14.581,-12.688C-11.172,-12.693 -7.255,-11.447 -4.609,-9.008C-1.959,-6.567 -0.425,-3.564 0,0M14.21,-27.851L-4.781,-27.815L-4.045,-21.642C-6.132,-23.997 -9.992,-26.072 -11.964,-27.147C-15.417,-29.019 -19.417,-29.222 -23.528,-29.214C-30.177,-29.201 -34.247,-27.688 -38.868,-22.929C-44.378,-17.249 -46.091,-9.233 -44.978,0.109C-43.845,9.61 -39.692,16.62 -32.676,22.277C-27.103,26.778 -21.054,29.023 -14.518,29.011C-10.715,29.004 -4.836,28.159 -1.692,26.474C0.114,25.511 1.823,24.499 3.6,22.297L10.766,60.913L29.756,60.878L14.21,-27.851Z" style="fill:rgb(182,164,107);fill-rule:nonzero;"/>
                </g>
                <g id="path9" transform="matrix(5.55556,0,0,-5.55556,4461.93,490.815)">
                    <path d="M0,0C0,-5.828 -3.301,-10.688 -7.44,-14.389C-12.088,-18.564 -18.628,-20.649 -27.065,-20.649C-34.525,-20.649 -42.255,-19.136 -49.284,-14.92L-40.555,-1.587C-35.063,-5.21 -29.634,-6.508 -24.92,-6.508C-20.907,-6.508 -18.097,-4.663 -18.097,-1.868C-18.097,-0.41 -18.798,0.711 -20.201,1.5C-21.097,2.011 -23.123,2.623 -26.278,3.331C-29.826,4.118 -32.142,4.727 -33.234,5.159C-39.761,7.698 -40.506,12.958 -40.55,17.287C-40.152,22.287 -37.924,27.295 -34.682,30.872C-30.502,35.472 -22.222,38.18 -14.841,38.18C-8.787,38.18 -1.293,36.999 4.41,34.636L-2.698,21.825C-6.278,23.715 -11.505,24.949 -14.772,24.949C-18.626,24.949 -20.552,23.6 -20.552,20.898C-20.552,19.667 -19.653,18.055 -18.095,17.301C-17.392,16.946 -16.046,16.565 -12.618,15.856C-7.592,14.792 -5.698,13.569 -3.321,11.246C-0.321,8.332 0,4.646 0,0" style="fill:rgb(182,164,107);fill-rule:nonzero;"/>
                </g>
                <g id="path11" transform="matrix(5.55556,0,0,-5.55556,4219.11,104.828)">
                    <path d="M0,0C4.661,-16.939 -8.354,-29.32 -24.631,-24.305C-25.973,-5.829 -16.925,1.949 0,0M-6.888,-33.323L-16.915,-89.865L-4.418,-89.868L-28.194,-139.793L-25.973,-102.003L-37.899,-101.959L-26.29,-33.129L-6.888,-33.323Z" style="fill:rgb(182,164,107);fill-rule:nonzero;"/>
                </g>
                <g transform="matrix(1.02071,0,-0.189987,1.02071,2450.05,-21.8914)">
                    <path d="M1013.97,788.114C1013.97,806.39 1007.89,822.431 995.726,836.237C981.854,851.95 963.085,859.806 939.417,859.806C915.816,859.806 897.079,851.95 883.207,836.237C871.045,822.431 864.964,806.39 864.964,788.114C864.964,779.764 866.607,771.201 869.895,762.425C873.182,753.648 877.586,746.137 883.109,739.891C896.981,724.179 915.75,716.323 939.417,716.323C963.085,716.323 981.854,724.179 995.726,739.891C1007.89,753.697 1013.97,769.771 1013.97,788.114ZM977.581,788.114C977.581,778.622 974.557,770.415 968.509,763.494C960.751,754.662 951.054,750.246 939.417,750.246C931.397,750.246 924.132,752.504 917.624,757.019C911.115,761.534 906.48,767.548 903.719,775.063C902.141,779.347 901.352,783.698 901.352,788.114C901.352,797.21 904.377,805.35 910.425,812.534C917.92,821.433 927.584,825.883 939.417,825.883C951.251,825.883 960.948,821.467 968.509,812.635C974.557,805.582 977.581,797.408 977.581,788.114Z" style="fill:rgb(182,164,107);fill-rule:nonzero;"/>
                </g>
                <g transform="matrix(1.02071,0,-0.189987,1.02071,2450.05,-21.8914)">
                    <path d="M787.465,749.556L745.357,749.556L745.357,772.533L783.718,772.533L783.718,801.722L745.357,801.722L745.357,854.974L710.349,854.974L710.349,720.366L787.465,720.366L787.465,749.556Z" style="fill:rgb(182,164,107);fill-rule:nonzero;"/>
                </g>
                <g transform="matrix(1.02071,0,-0.189987,1.02071,2450.05,-21.8914)">
                    <path d="M1241.76,788.114C1241.76,806.39 1235.67,822.431 1223.51,836.237C1209.64,851.95 1190.87,859.806 1167.2,859.806C1143.6,859.806 1124.87,851.95 1110.99,836.237C1098.83,822.431 1092.75,806.39 1092.75,788.114C1092.75,779.764 1094.39,771.201 1097.68,762.425C1100.97,753.648 1105.37,746.137 1110.89,739.891C1124.77,724.179 1143.54,716.323 1167.2,716.323C1190.87,716.323 1209.64,724.179 1223.51,739.891C1235.67,753.697 1241.76,769.771 1241.76,788.114ZM1205.37,788.114C1205.37,778.622 1202.34,770.415 1196.3,763.494C1188.54,754.662 1178.84,750.246 1167.2,750.246C1159.18,750.246 1151.92,752.504 1145.41,757.019C1138.9,761.534 1134.27,767.548 1131.51,775.063C1129.93,779.347 1129.14,783.698 1129.14,788.114C1129.14,797.21 1132.16,805.35 1138.21,812.534C1145.71,821.433 1155.37,825.883 1167.2,825.883C1179.04,825.883 1188.74,821.467 1196.3,812.635C1202.34,805.582 1205.37,797.408 1205.37,788.114Z" style="fill:rgb(182,164,107);fill-rule:nonzero;"/>
                </g>
                <g transform="matrix(1.02071,0,-0.189987,1.02071,2450.05,-21.8914)">
                    <path d="M1444.59,787.621C1444.59,801.624 1440.37,814.591 1431.92,826.524C1423.47,838.456 1412.67,846.723 1399.53,851.325C1392.56,853.758 1385.46,854.974 1378.23,854.974L1326.55,854.974L1326.55,720.366L1378.23,720.366C1390.85,720.366 1402.55,723.883 1413.33,730.918C1423.92,737.755 1432.04,746.893 1437.69,758.332C1442.29,767.799 1444.59,777.562 1444.59,787.621ZM1408.2,787.621C1408.2,778.327 1405.61,770.22 1400.41,763.298C1393.51,754.136 1383.22,749.556 1369.55,749.556L1361.56,749.556L1361.56,825.784L1369.55,825.784C1383.29,825.784 1393.58,821.203 1400.41,812.041C1405.61,805.054 1408.2,796.914 1408.2,787.621Z" style="fill:rgb(182,164,107);fill-rule:nonzero;"/>
                </g>
            </g>
        </g>
    </g>
</svg>
